<svg xmlns="http://www.w3.org/2000/svg" xmlns:xlink="http://www.w3.org/1999/xlink" version="1.1" x="0px" y="0px" viewBox="0 0 361 59" style="enable-background:new 0 0 361 59;" width="361" height="59" xml:space="preserve">
<style type="text/css">
	.st0{fill-rule:evenodd;clip-rule:evenodd;fill:#FFFFFF;}
	.st1{fill:none;}
	.st2{fill:#1B1B1B;}
</style>
<g id="Layer_2">
	<g>
		<g>
			<path class="st0" d="M360.8 12.7l-9.5-11.8h-34l-1.6 7.3l-7.1-7.3h-15.4L283 16.5l-2.4-7.7l-8.1-8h-16.1l-2.9 17.6l-6.3-8.5 c0 0-3.7-7.2-14.2-9.3c-18.4-3.8-29.9 11.4-29.9 11.4s-5.4-9.1-16.2-11.3c-16-3.3-23.4 7.1-23.4 7.1l-6.6-7.9h-50.2l-5.8 11.9 L91.8-0.2H79.9l-6.3 13.3l-1-4.3l-6.4-9l-14.9 0l9 48l7 9h10.6l7.5-16.6l2.1 9.2l7 7.4h9.4l12.5-21.3L113.9 47l8.4 9.9h35.6 l1.7-8.4c0 0 3.4 7.1 15 9.5c22.9 4.7 26.9-16 26.9-16s6.2 13.3 17.7 15.6c19.2 4 28.8-10 28.8-10l8.6 10.2h12l3.4-12.4l7.7 8.4 h6.1l3.9-3.9l6.4 9h13l1.5-8.6l5.5 8.6h36l2.8-11.4l-4.3-6.5l2.7-1l2.1-9.9l-4.4-5.7l7.5-0.8L360.8 12.7z M218.4 35.8 c3.5-16.5 15.1-15 16.7-14.1C235.6 23.1 231.7 37.7 218.4 35.8z M39-0.2H26.7l-27 45.7l9 11.3h12l5.3-9.8l11.2 0.7l7.5 9.1h15 L47.3 8.3L39-0.2z"/>
		</g>
	</g>
	<g>
		<path class="st1" d="M234.8 12.2c-6.4-5.7-15.4-1.1-19.8 2.8c-4.4 3.9-7.7 12.5-4.9 17.7c2.2 4.2 8.7 5.5 8.7 5.5 s6.3 0.2 12.2-3.4C237.4 30.8 241.6 18.2 234.8 12.2z M218.6 36.1c3.5-16.5 16.1-15.3 17.7-14.4C236.8 23.1 231.9 38 218.6 36.1z"/>
	</g>
	<g>
		<g>
			<path class="st2" d="M27.8 0.7L1 45.8l10.4 0l5.9-10.1h18.1l2.5 10.2l10.4 0L36.8 0.7H27.8z M21.8 27.7l8.4-13.4l3 13.4H21.8z M107.9 0.7L94.2 26.9L90.9 0.7h-10L68.4 26.8L63.9 0.7H52.9l8.4 46h7.1l15-32l4.5 32h7l23-46H107.9z M115.9 45.7h32l2-9h-22.7 l1.6-9l19.6 0.1l1.5-8h-19.7l1.7-10h22l1-9h-31L115.9 45.7z M175 11.1c1.1-0.8 2.5-1.2 4.1-1.2c4.1 0 7.8 1.5 11.1 4.4l6.3-7.2 c-1.9-1.9-4.2-3.3-7-4.3c-2.8-1-5.6-1.5-8.6-1.5c-4.5 0-8.5 1.1-11.9 3.4c-3.4 2.3-5.5 5.5-6.3 9.7c-0.8 4.2-0.1 7.3 1.9 9.2 c2 2 5.5 3.6 10.4 4.8c3.1 0.8 5.1 1.6 6.1 2.4c1 0.8 1.3 1.8 1.1 3.2c-0.2 1.3-0.9 2.4-2.1 3.2c-1.2 0.8-2.7 1.2-4.5 1.2 c-4.1 0-8.1-2.1-12.1-6.3l-7.2 7.2c4.7 5.2 10.5 7.8 17.5 7.8c4.9 0 9-1.2 12.4-3.7c3.4-2.5 5.5-5.7 6.2-9.6c0.7-4 0.1-7-1.9-9 c-2-2.1-4.9-3.6-9-4.7c-4-1-6.5-1.9-7.6-2.7c-1-0.8-1.4-1.8-1.2-3.1C173.3 12.9 173.9 11.9 175 11.1z M227.5 1.5 c-6.5 0-12.4 2.1-17.7 6.5c-5.3 4.3-8.5 9.8-9.6 16.2c-1.2 6.5 0.1 11.9 3.8 16.3c3.7 4.4 8.8 6.6 15.4 6.6 c6.5 0 12.4-2.1 17.7-6.5c5.3-4.3 8.5-9.8 9.6-16.2c1.2-6.5-0.1-11.9-3.8-16.3C239.2 3.7 234.1 1.5 227.5 1.5z M236.6 24.3 c-0.7 3.9-2.6 7.3-5.6 10c-3 2.7-6.4 4.1-10.1 4.1c-3.7 0-6.6-1.4-8.6-4.2c-2-2.8-2.7-6.1-2-10c0.7-3.9 2.6-7.3 5.6-10.1 c3-2.8 6.4-4.1 10.1-4.1c3.7 0 6.6 1.4 8.6 4.2C236.7 17 237.3 20.4 236.6 24.3z M278.1 27.1l-7-25.4h-13l-7.9 45h9.9l4.8-27.8 l7.5 24.7l5.8 0l16-24.7l-5 28.7h10l8-46h-13L278.1 27.1z M348.2 10.7l1-9h-31l-7.8 46h31.8l2-9h-22.4l1.4-10h19.9l1-8H325 l1.6-10H348.2z"/>
		</g>
	</g>
</g>
</svg>
