<svg xmlns="http://www.w3.org/2000/svg" width="96" height="96" viewBox="0 0 96 96"><path fill="#494949" d="M48 0c-26.51 0-48 21.49-48 48 0 26.511 21.49 48 48 48 26.511 0 48-21.489 48-48 0-26.51-21.489-48-48-48zm-11.747 67.893h-9.723v-31.278h9.723v31.278zm-4.926-35.116c-3.07 0-5.053-2.174-5.053-4.859 0-2.751 2.047-4.861 5.18-4.861 3.136 0 5.055 2.11 5.117 4.861 0 2.686-1.982 4.859-5.244 4.859zm40.421 35.116h-9.722v-17.334c0-4.029-1.408-6.779-4.925-6.779-2.687 0-4.284 1.855-4.988 3.646-.256.639-.322 1.535-.322 2.43v18.037h-9.72v-21.299c0-3.901-.127-7.163-.256-9.979h8.442l.448 4.35h.191c1.279-2.047 4.413-5.053 9.659-5.053 6.395 0 11.191 4.285 11.191 13.495v18.486z"/></svg>
