<svg xmlns="http://www.w3.org/2000/svg" width="341.835" height="114.47" viewBox="0 0 341.835 114.47"><g><radialGradient id="a" cx="-61.998" cy="162.921" r="42.323" gradientTransform="matrix(1 0 0 -1 91 201.97)" gradientUnits="userSpaceOnUse"><stop offset="0" stop-color="#fff"/><stop offset="1" stop-color="#E56CB3"/></radialGradient><path fill="url(#a)" d="M50.624.783c4.061.484 7.329 5.074 7.983 8.479.157.813.16 1.641.073 2.473-1.512 11.823-14.489 16.191-17.67 19.037l-.04-.057c-3.099 2.737-5.57 5.592-7.588 9.039l.021.009c-.136.198-.263.409-.376.621v.009l-.014.01v.009l-.013.015-.348.644-.019-.009c-3.663 6.593-4.277 12.871-4.169 21.858 1.505 14.184-11.639 23.523-21.393 17.457-.959-.602-3.661-2.459-4.268-3.4-2.932-4.529-.11-11.263 2.359-15.496 3.941-6.753 11.599-9.951 16.936-15.679 1.815-1.938 3.626-4.181 5.361-6.819l.212-.32.165-.348c2.452-4.882 3.487-8.954 3.936-12.416.663-5.107.057-8.314 2.298-13.365 2.347-5.284 10.372-12.489 16.554-11.751z"/><radialGradient id="b" cx="-28.693" cy="144.535" r="93.29" gradientTransform="matrix(1 0 0 -1 91 201.97)" gradientUnits="userSpaceOnUse"><stop offset="0" stop-color="#fff"/><stop offset="1" stop-color="#E56CB3"/></radialGradient><path fill="url(#b)" d="M59.079 8.821l.033.442-.033-.442zm25.929 84.39v2.008c-.035.696-.101 1.42-.207 2.163-3.459 11.682-17.997 19.055-29.148 12.293-7.701-4.675-10.55-12.744-9.302-20.475.11-.423.228-.837.348-1.232.177-1.166.484-2.323.934-3.471 1.832-7.891 3.628-20.88 2.467-30.582-.386-3.287-1.307-6.626-1.987-9.899-.929-4.439-3.459-10.017-6.76-14.353l.042.047c3.181-2.841 16.154-7.209 17.67-19.027-.28 2.629-1.521 5.304-2.097 7.807-.538 2.361-1.011 5.041-1.341 7.834-.574 4.858-.738 10.163-.078 14.79.461 3.302.308 5.441 1.112 8.723 1.117 4.505 3.638 10.76 9.208 17.852l.054.089h.002c.557.795 1.138 1.542 1.733 2.178 7.293 7.769 16.785 12.481 17.35 23.255zm-25.889-83.469c-.002.301-.023.597-.049.893.026-.296.047-.592.049-.893z"/><radialGradient id="c" cx="-9.856" cy="143.901" r="54.945" gradientTransform="matrix(1 0 0 -1 91 201.97)" gradientUnits="userSpaceOnUse"><stop offset="0" stop-color="#fff"/><stop offset="1" stop-color="#E56CB3"/></radialGradient><path fill="url(#c)" d="M69.204 67.318c3.045-2.864 6.017-6.325 8.639-10.666l.261-.4c.042-.155.118-.301.172-.423 3.155-7.703 3.285-13.939 2.781-19.084-.562-5.785-1.851-9.565.529-14.527 2.718-5.657 14.338-16.271 26.241-13.798 6.033 1.255 8.757 7.256 10.724 11.808 3.891 9.02-3.503 14.79-10.047 18.613-11.464 6.764-16.934 11.176-21.197 19.513l.026.014-.444.804.002.014v.009h-.014l.002.019-.012.01-.393.837-.028-.01c-4.08 8.625-3.487 17.25-1.021 29.919 3.955 16.62-15.392 30.413-29.39 21.915-1.564-.945-5.812-4.35-7.851-7.091-3.922-5.267-2.443-7.223-1.45-13.384 3.756-14.268 12.169-13.788 22.47-24.092z"/><radialGradient id="d" cx="-34.516" cy="194.817" r=".123" gradientTransform="matrix(1 0 0 -1 91 201.97)" gradientUnits="userSpaceOnUse"><stop offset="0" stop-color="#D48CB9"/><stop offset="1" stop-color="#CB2A7D"/></radialGradient><path fill="url(#d)" d="M56.476 7.019l.016.268-.016-.268z"/><radialGradient id="e" cx="-34.512" cy="194.003" r=".641" gradientTransform="matrix(1 0 0 -1 91 201.97)" gradientUnits="userSpaceOnUse"><stop offset="0" stop-color="#D48CB9"/><stop offset="1" stop-color="#CB2A7D"/></radialGradient><path fill="url(#e)" d="M56.476 8.665v-1.396l.024.503c.005.296 0 .597-.024.893z"/><radialGradient id="f" cx="-34.533" cy="195.04" r=".082" gradientTransform="matrix(1 0 0 -1 91 201.97)" gradientUnits="userSpaceOnUse"><stop offset="0" stop-color="#D48CB9"/><stop offset="1" stop-color="#CB2A7D"/></radialGradient><path fill="url(#f)" d="M56.46 6.84l.016.179-.016-.179z"/><radialGradient id="g" cx="-32.356" cy="146.225" r="57.212" gradientTransform="matrix(1 0 0 -1 91 201.97)" gradientUnits="userSpaceOnUse"><stop offset="0" stop-color="#FFA7DE"/><stop offset=".343" stop-color="#F886CB"/><stop offset=".772" stop-color="#FF42B9"/><stop offset="1" stop-color="#FF2FBE"/></radialGradient><path fill="url(#g)" d="M116.236 15.95c-1.989-4.609-6.302-8.436-12.408-9.706-12.042-2.502-22.239 5.991-24.988 11.719-2.41 5.013-1.108 8.841-.536 14.691.508 5.206.378 11.522-2.814 19.31-.054.131-.13.273-.172.428-.099.127-.186.273-.266.409-2.654 4.388-5.657 7.891-8.74 10.788-1.023 1.025-2.029 1.938-3.012 2.775-3.139-4.007-5.314-7.736-6.824-11.051-1.19-2.615-1.966-4.966-2.462-6.979-.816-3.32-.661-5.483-1.129-8.822-.668-4.679-.501-10.045.08-14.959.334-2.831.811-5.545 1.355-7.934.249-1.072.614-2.192.98-3.311.543-1.317.943-2.737 1.143-4.298l.033-.32v-1.42c-.019-.254-.056-.512-.106-.767-.661-3.442-3.48-5.935-7.585-6.428-6.262-.754-14.866 4.395-17.238 9.742-2.271 5.107-1.653 8.352-2.325 13.515-.454 3.509-1.501 7.628-3.981 12.566l-.169.357-.211.32c-1.757 2.671-3.588 4.934-5.425 6.904-5.401 5.794-13.147 9.025-17.134 15.858-3.019 5.173-3.715 15.599 1.931 19.112 9.869 6.146 23.168-3.311 21.642-17.659-.108-9.09.513-15.439 4.218-22.112l.021.009.351-.654.012-.01.002-.009.012-.014.002-.014c.113-.207.24-.418.381-.621l-.024-.01c2.044-3.489 4.543-6.377 7.677-9.142l.04.047.134-.113c3.254 4.355 5.737 9.885 6.661 14.297.689 3.311 1.622 6.697 2.01 10.017 1.176 9.81-.642 22.958-2.495 30.944-.4 1.016-.682 2.037-.87 3.067-.148.48-.292.978-.428 1.495-.188 1.161-.28 2.333-.28 3.499l-.002.169v.038c-.005 6.669 3.069 13.182 9.695 17.203 1.131.687 2.299 1.227 3.485 1.637 10.635 3.668 22.855-3.443 26.004-14.071l.047-.372c.849-2.972.997-6.212.197-9.57-2.495-12.81-3.095-21.534 1.032-30.267l.028.014.397-.851.012-.009-.002-.014h.014v-.014l-.002-.009c.151-.273.313-.55.452-.818l-.028-.01c4.315-8.437 9.85-12.9 21.447-19.742 5.072-2.963 10.654-7.082 11.212-12.952v-1.947c-.115-1.232-.454-2.549-1.051-3.931z"/><g fill="#231F20"><path d="M191.045 79.157c0 2.289-.688 3.928-2.056 4.915-1.378.995-3.026 1.488-4.959 1.488-1.441 0-2.813-.24-4.117-.711-1.301-.474-2.473-1.508-3.504-3.103l-19.898-30.132c-.36-.474-.608-.777-.741-.904-.137-.13-.247-.197-.333-.197-.184 0-.384.1-.608.29-.23.197-.34.53-.34 1.007v33.23h-8.633v-39.632c0-1.942.641-3.447 1.922-4.528 1.278-1.074 3.047-1.615 5.296-1.615 2.112 0 3.731.347 4.851 1.035 1.128.691 1.999 1.532 2.633 2.519l20.027 30.329c.18.217.331.45.441.711.11.257.324.387.64.387.357 0 .574-.14.641-.421.067-.28.1-.507.1-.677v-33.369h8.636v39.378h.002zM218.287 50.45c1.258.044 2.536.187 3.841.418 1.305.24 2.565.61 3.781 1.101 1.214.5 2.313 1.178 3.303 2.039 1.034.905 1.858 1.972 2.459 3.204.608 1.225 1.072 2.462 1.385 3.713.314 1.251.517 2.479.607 3.684.09 1.208.134 2.269.134 3.17 0 3.664-.437 6.611-1.315 8.829-.877 2.219-1.965 3.934-3.27 5.138-.948.858-2.036 1.545-3.27 2.032-1.238.5-2.52.864-3.847 1.104-1.325.237-2.616.387-3.874.45-1.262.064-2.41.097-3.437.097-1.084 0-2.252-.033-3.513-.097-1.258-.064-2.539-.213-3.841-.45-1.305-.241-2.566-.604-3.781-1.104-1.214-.487-2.312-1.175-3.3-2.032-1.081-.948-1.925-2.026-2.529-3.233-.61-1.208-1.058-2.446-1.348-3.721-.294-1.271-.487-2.499-.574-3.683-.09-1.185-.134-2.209-.134-3.073 0-.944.044-2.045.134-3.294.087-1.251.29-2.512.607-3.787.31-1.268.774-2.519 1.382-3.744.608-1.231 1.425-2.299 2.462-3.204.988-.86 2.086-1.538 3.3-2.039 1.215-.491 2.477-.861 3.781-1.101 1.301-.23 2.583-.374 3.841-.418 1.262-.043 2.429-.063 3.513-.063 1.078.001 2.242.021 3.503.064zm-14.065 22.05c.204 1.592.868 3.013 1.992 4.264 1.171 1.255 2.53 2.039 4.081 2.362 1.552.321 3.043.487 4.488.487 1.479 0 2.973-.167 4.482-.487 1.505-.323 2.839-1.108 4.011-2.362 1.171-1.251 1.855-2.65 2.059-4.197.2-1.555.303-3.083.303-4.595v-2.072c0-.771-.066-1.568-.204-2.386-.133-.821-.36-1.631-.67-2.425-.317-.797-.794-1.522-1.421-2.166-.581-.601-1.225-1.091-1.922-1.455-.694-.364-1.411-.647-2.155-.845-.741-.19-1.498-.307-2.259-.353-.767-.044-1.505-.06-2.222-.06-.634 0-1.341.016-2.129.06-.787.046-1.558.163-2.326.353-.764.198-1.518.481-2.259.845-.744.364-1.385.854-1.925 1.455-.537.604-.968 1.315-1.281 2.132-.31.817-.537 1.648-.671 2.492-.133.838-.213 1.648-.236 2.419-.027.778-.033 1.448-.033 2.006-.003 1.425.1 2.93.297 4.528zM269.204 81.353c-.18.821-.45 1.468-.807 1.946-.638.817-1.408 1.312-2.33 1.488-.924.17-1.788.254-2.593.254h-14.094c-.904 0-1.881-.074-2.936-.224-1.058-.15-2.103-.463-3.137-.934-1.035-.477-2.009-1.154-2.933-2.039-.921-.884-1.719-2.082-2.393-3.587-.454-.994-.858-2.339-1.215-4.044-.36-1.702-.541-3.975-.541-6.821 0-1.812.157-3.761.474-5.849.314-2.096 1.074-3.981 2.289-5.66.854-1.204 1.832-2.155 2.936-2.843 1.098-.69 2.203-1.195 3.304-1.521 1.102-.327 2.156-.528 3.17-.614 1.014-.087 1.879-.13 2.596-.13h10.591v-10.996h7.885v39.255c.001.727-.085 1.508-.266 2.319zm-16.657-24.759c-1.034 0-2.182.173-3.44.52-1.258.34-2.319 1.185-3.17 2.52-.407.604-.764 1.508-1.081 2.716-.314 1.208-.467 2.97-.467 5.299 0 2.676.123 4.549.367 5.63.247 1.078.44 1.765.574 2.065.407.868.901 1.555 1.482 2.072.587.514 1.201.908 1.858 1.164.651.254 1.315.431 1.989.514.674.087 1.305.134 1.888.134h6.34c.176 0 .5-.024.977-.07.471-.04.841-.19 1.111-.45.317-.26.497-.657.541-1.195.044-.541.07-.938.07-1.201v-19.718h-9.039zM286.336 85.04c-.905 0-1.846-.027-2.83-.094-.994-.064-1.959-.247-2.906-.551-.941-.3-1.865-.737-2.763-1.315-.901-.584-1.708-1.361-2.429-2.352-1.164-1.635-1.888-3.544-2.159-5.733-.267-2.192-.4-4.424-.4-6.7 0-1.589.034-3.083.097-4.478.07-1.395.247-2.683.544-3.864.29-1.182.72-2.263 1.278-3.257.564-.985 1.341-1.889 2.326-2.699.991-.818 2.086-1.442 3.277-1.872 1.185-.43 2.389-.737 3.604-.934 1.214-.19 2.382-.307 3.51-.353 1.118-.044 2.109-.063 2.967-.063 2.112 0 4.191.12 6.237.351 2.045.237 3.897.847 5.559 1.835 1.037.641 1.882 1.372 2.533 2.183.651.814 1.171 1.702 1.555 2.666.377.964.641 1.972.771 3.02.137 1.048.204 2.112.204 3.176 0 .858-.09 1.749-.27 2.67s-.651 1.745-1.415 2.473c-.537.51-1.134.858-1.785 1.028-.651.173-1.345.257-2.062.257h-20.765c0 .734.043 1.571.13 2.522.09.944.204 1.682.337 2.196.271.904.651 1.629 1.148 2.162.497.544 1.078.951 1.755 1.232.674.284 1.382.467 2.119.55.748.087 1.478.134 2.199.134h17.461v5.813h-19.827v-.003zm11.062-20.432c.761 0 1.248-.213 1.448-.634.2-.424.304-.871.304-1.335 0-1.061-.237-1.975-.711-2.736-.471-.767-1.001-1.358-1.582-1.782-.991-.721-2.082-1.158-3.273-1.301-1.188-.154-2.346-.227-3.474-.227-.541 0-1.124.013-1.755.029-.627.024-1.281.097-1.956.224-.67.126-1.335.35-1.985.67-.651.317-1.248.754-1.788 1.298-.811.851-1.271 1.759-1.385 2.71-.111.955-.187 1.979-.23 3.083h16.387v.001zM310.208 79.227h20.098c.404 0 .848-.06 1.345-.167s.925-.374 1.281-.804c.361-.347.564-.721.608-1.134.043-.407.067-.744.067-1.005 0-.471-.057-.925-.167-1.355-.113-.43-.394-.841-.841-1.227-.133-.131-.317-.251-.541-.357-.227-.103-.571-.247-1.048-.42-.471-.17-1.088-.367-1.852-.581-.767-.213-1.779-.497-3.034-.841l-6.877-1.809c-1.889-.48-3.491-1.044-4.792-1.712-1.305-.674-2.316-1.478-3.036-2.425-.718-.948-1.175-1.942-1.382-2.977-.2-1.035-.3-1.985-.3-2.846s.1-1.808.3-2.846c.207-1.031.664-2.022 1.382-2.97.541-.687 1.147-1.241 1.822-1.652.674-.41 1.381-.711 2.125-.908.744-.19 1.505-.307 2.293-.353.784-.044 1.565-.063 2.326-.063h20.168v5.82h-18.954c-.45 0-.911.023-1.378.063-.478.047-.935.241-1.385.581-.497.347-.791.727-.881 1.134-.087.407-.13.854-.13 1.325 0 .474.053.927.163 1.358.117.431.444.861.984 1.294.264.217.604.411 1.008.581.404.17.817.337 1.248.484.427.154.841.29 1.248.424.404.127.718.214.944.254l7.688 2.072c2.156.604 3.958 1.175 5.393 1.715 1.441.541 2.609 1.258 3.511 2.166.984.991 1.605 2.042 1.855 3.167.247 1.121.368 2.155.368 3.1 0 .434-.024.961-.067 1.588-.044.624-.17 1.281-.367 1.972-.207.687-.507 1.358-.914 2.002-.404.647-.968 1.228-1.685 1.748-.901.648-1.855 1.045-2.866 1.195-1.008.15-1.965.224-2.863.224h-22.864l-.001-5.815z"/></g></g></svg>
