<svg xmlns="http://www.w3.org/2000/svg" width="96" height="96" viewBox="0 0 96 96"><path fill="#494949" d="M48 0c-26.512 0-48 21.49-48 48 0 26.511 21.488 48 48 48 26.51 0 48-21.489 48-48 0-26.51-21.49-48-48-48zm19.521 39.322c.02.406.027.814.027 1.224 0 12.493-9.51 26.899-26.898 26.899-5.338 0-10.307-1.566-14.49-4.249.738.089 1.49.133 2.254.133 4.43 0 8.506-1.511 11.742-4.048-4.137-.075-7.629-2.809-8.832-6.564.578.109 1.17.17 1.779.17.861 0 1.697-.116 2.49-.332-4.324-.869-7.584-4.689-7.584-9.271l.002-.118c1.273.708 2.732 1.133 4.281 1.183-2.537-1.696-4.205-4.589-4.205-7.87 0-1.732.465-3.355 1.279-4.752 4.662 5.72 11.629 9.483 19.486 9.878-.162-.692-.244-1.414-.244-2.155 0-5.221 4.232-9.453 9.453-9.453 2.719 0 5.176 1.149 6.9 2.985 2.154-.424 4.178-1.21 6.004-2.294-.707 2.207-2.205 4.061-4.156 5.23 1.912-.229 3.734-.736 5.43-1.488-1.266 1.894-2.87 3.56-4.718 4.892z"/></svg>
